<?xml version="1.0" standalone="no"?>
<!DOCTYPE svg PUBLIC "-//W3C//DTD SVG 20010904//EN"
 "http://www.w3.org/TR/2001/REC-SVG-20010904/DTD/svg10.dtd">
<svg version="1.0" xmlns="http://www.w3.org/2000/svg"
 width="500.000000pt" height="500.000000pt" viewBox="0 0 500.000000 500.000000"
 preserveAspectRatio="xMidYMid meet">

<g transform="translate(0.000000,500.000000) scale(0.100000,-0.100000)"
fill="#000000" stroke="none">
<path d="M1320 2566 l0 -1114 183 -7 c100 -3 603 -5 1117 -3 l935 3 3 935 c2
514 0 1017 -3 1118 l-7 182 -1114 0 -1114 0 0 -1114z m2161 4 c-1 -574 -3
-1045 -4 -1047 -2 -1 -473 -3 -1047 -4 l-1045 -1 -3 1038 c-1 572 0 1045 3
1052 3 10 219 12 1051 10 l1046 -3 -1 -1045z"/>
<path d="M1699 3305 c-5 -4 54 -288 85 -411 6 -21 12 -24 54 -24 l48 0 39 140
c21 77 41 140 45 140 4 0 24 -63 46 -140 l39 -140 47 0 c42 0 48 3 54 24 3 13
25 110 48 216 47 207 47 204 -15 198 l-33 -3 -27 -133 c-14 -73 -28 -135 -31
-137 -2 -2 -22 57 -44 133 l-39 137 -42 3 -42 3 -21 -73 c-12 -40 -31 -107
-44 -148 l-22 -75 -29 145 -30 145 -40 3 c-23 2 -43 0 -46 -3z"/>
<path d="M2425 3291 c-174 -79 -180 -315 -11 -404 57 -30 155 -30 213 1 138
72 164 253 52 359 -67 63 -173 82 -254 44z m171 -88 c74 -48 78 -161 9 -222
-67 -59 -166 -36 -206 47 -62 127 80 252 197 175z"/>
<path d="M2818 3304 c-5 -4 -8 -103 -8 -221 l0 -213 50 0 50 0 0 85 0 85 45 0
45 0 42 -85 42 -85 52 0 52 0 -47 87 -47 87 32 29 c72 62 65 160 -14 209 -29
18 -54 22 -161 26 -69 2 -129 1 -133 -4z m247 -94 c8 -7 15 -25 15 -41 0 -41
-32 -59 -107 -59 l-63 0 0 61 0 62 70 -5 c38 -3 77 -11 85 -18z"/>
<path d="M1720 2531 l0 -221 45 0 45 0 0 98 1 97 92 -98 92 -98 58 3 57 3
-104 111 -105 111 100 99 c54 54 99 102 99 106 0 5 -21 8 -48 8 -47 0 -49 -1
-142 -95 l-95 -96 -5 93 -5 93 -42 3 -43 3 0 -220z"/>
<path d="M2157 2744 c-4 -4 -7 -103 -7 -221 l0 -213 170 0 170 0 0 40 0 40
-120 0 -120 0 0 50 0 50 81 0 80 0 -3 38 -3 37 -77 3 -78 3 0 44 0 44 118 3
117 3 0 40 0 40 -161 3 c-88 1 -163 -1 -167 -4z"/>
<path d="M2560 2531 l0 -221 108 0 c92 0 114 4 157 24 85 40 125 103 125 196
0 85 -52 161 -135 196 -25 10 -80 18 -147 22 l-108 5 0 -222z m236 110 c17
-10 38 -34 47 -54 47 -99 -23 -197 -140 -197 l-53 0 0 135 0 135 58 0 c38 0
67 -6 88 -19z"/>
<path d="M3135 2731 c-54 -24 -109 -87 -124 -144 -57 -201 175 -362 350 -243
45 30 89 115 89 168 l0 38 -116 0 -115 0 3 -37 3 -38 63 -3 c67 -3 67 -4 52
-33 -16 -29 -63 -49 -116 -49 -41 0 -51 5 -85 39 -35 35 -39 44 -39 90 0 87
38 134 117 146 29 5 49 1 86 -19 50 -27 68 -25 97 8 17 22 -1 43 -65 72 -62
29 -143 31 -200 5z"/>
<path d="M1720 1970 l0 -220 165 0 165 0 0 40 0 40 -120 0 -120 0 0 50 0 50
80 0 80 0 0 40 0 40 -80 0 -80 0 0 45 0 45 120 0 120 0 0 45 0 45 -165 0 -165
0 0 -220z"/>
<path d="M2132 1834 c-37 -26 -20 -94 24 -94 19 0 54 36 54 55 0 16 -34 55
-48 55 -4 0 -18 -7 -30 -16z"/>
</g>
</svg>
