<svg width="1920" height="843" viewBox="0 0 1920 843" fill="none" xmlns="http://www.w3.org/2000/svg">
<mask id="mask0_2_3994" style="mask-type:alpha" maskUnits="userSpaceOnUse" x="-40" y="74" width="1995" height="769">
<path d="M-40 74H1955V843H-40V74Z" fill="#F1F3F5"/>
</mask>
<g mask="url(#mask0_2_3994)">
<path d="M-40 74H1955V839C1955 839 1559 816.239 959.5 816.239C360 816.239 -40 839 -40 839V74Z" fill="#302357"/>
</g>
<path d="M2980 121C2980 105.11 2927.74 89.3757 2826.2 74.6953C2724.66 60.0149 2575.83 46.676 2388.21 35.4401C2200.59 24.2042 1977.85 15.2914 1732.71 9.21058C1487.57 3.12976 1224.84 -6.94572e-07 959.5 0C694.164 6.94572e-07 431.426 3.12976 186.288 9.21058C-58.8503 15.2914 -281.589 24.2042 -469.209 35.4401C-656.83 46.676 -805.659 60.0149 -907.199 74.6953C-1008.74 89.3757 -1061 105.11 -1061 121L959.5 121H2980Z" fill="#302357"/>
</svg>
